<svg width="160" height="160" viewBox="0 0 160 160" fill="none" xmlns="http://www.w3.org/2000/svg">
  <rect width="160" height="160" rx="40" fill="url(#bg)"/>
  <path d="M42 110V50H78C101.196 50 116 62.6087 116 80C116 97.3913 101.196 110 78 110H42Z" fill="white" fill-opacity="0.18"/>
  <path d="M55 101V59H78C94.5685 59 105 67.7042 105 80C105 92.2958 94.5685 101 78 101H55Z" fill="white"/>
  <path d="M72 71H82.5C89.6807 71 94 74.5986 94 80C94 85.4014 89.6807 89 82.5 89H72V71Z" fill="url(#ink)"/>
  <circle cx="118" cy="118" r="12" fill="#F59E0B"/>
  <defs>
    <linearGradient id="bg" x1="18" y1="18" x2="142" y2="142" gradientUnits="userSpaceOnUse">
      <stop stop-color="#0F172A"/>
      <stop offset="0.55" stop-color="#1D4ED8"/>
      <stop offset="1" stop-color="#0EA5E9"/>
    </linearGradient>
    <linearGradient id="ink" x1="72" y1="71" x2="94" y2="89" gradientUnits="userSpaceOnUse">
      <stop stop-color="#0F172A"/>
      <stop offset="1" stop-color="#1D4ED8"/>
    </linearGradient>
  </defs>
</svg>